<svg xmlns="http://www.w3.org/2000/svg" width="26" height="26" viewBox="0 0 26 26"><g><g><path fill="#fff" d="M1.315 0h3.12C5.161 0 5.75.588 5.75 1.315v.089c0 .428-.205.808-.521 1.048.07.05.135.109.194.173h19.292c.693 0 1.254.561 1.254 1.253v.087c0 .408-.195.77-.496.999.377.257.598.713.533 1.195l-1.504 9.318a1.248 1.248 0 0 1-1.405 1.068l-.1-.014H7.747l.384 2.531h13.525c.656 0 1.188.532 1.188 1.188v.125c0 .656-.532 1.187-1.188 1.187H7.184l-.049.008a1.248 1.248 0 0 1-1.432-1.031L3.143 3.682a1.24 1.24 0 0 1 .248-.963H1.315A1.315 1.315 0 0 1 0 1.404v-.09C0 .59.589 0 1.315 0zm4.714 5.219l.614 4.04a.485.485 0 0 1 .09-.009h4.486V5.219zm1.3 8.562h3.89v-3.5H6.798zm14.665 0l.565-3.5h-5.06v3.5zm1.289-7.988c.03-.216.112-.411.233-.574H17.5V9.25h5.225zm-11.064-.574V9.25h4.28V5.219zm0 8.562h4.28v-3.5h-4.28zm-3.157 9.406c1.07 0 1.938.63 1.938 1.407C11 25.37 10.132 26 9.062 26c-1.07 0-1.937-.63-1.937-1.406 0-.777.867-1.407 1.937-1.407zm11.97 0c1.07 0 1.937.63 1.937 1.407 0 .776-.868 1.406-1.938 1.406-1.07 0-1.937-.63-1.937-1.406 0-.777.867-1.407 1.937-1.407z"/></g></g></svg>