<svg xmlns="http://www.w3.org/2000/svg" width="160" height="32" viewBox="0 0 160 32"><g><g><path fill="#000" d="M10 0h140c5.523 0 10 4.477 10 10v12c0 5.523-4.477 10-10 10H10C4.477 32 0 27.523 0 22V10C0 4.477 4.477 0 10 0zm141.233 14.027v-1.764c0-1.147 0-2.161-.857-2.845-.812-.662-1.895-.618-2.864-.618h-2.48v15.57h1.104V17.27h1.624c.699 0 2.03-.044 2.841-.993.609-.705.632-1.411.632-2.249zm-1.601 1.786c-.474.485-1.106.552-1.714.552h-1.804v-6.66h1.69c.925 0 1.286.066 1.692.374.632.464.654 1.213.654 2.603v1.345c0 .132.09 1.19-.518 1.786zm-12.156 7.41c.406-.64.473-1.3.473-2.029v-8.6c0-1.213 0-2.559-1.127-3.397-.587-.419-1.308-.573-2.03-.573-1.353-.022-2.593.573-3.044 1.874-.248.706-.248 1.588-.248 1.765v8.777c0 .926.067 1.808.699 2.58.789.927 2.165.949 2.48.949 1.624 0 2.458-.772 2.797-1.346zm-.587-2.448c0 .904-.045 1.853-.902 2.448-.36.265-.789.375-1.24.375-1.263 0-1.827-.794-1.985-1.213-.135-.397-.18-.882-.18-1.764v-8.579c0-.265-.045-1.5.925-2.117.18-.11.586-.33 1.217-.33.52 0 .902.154 1.06.242.451.22.632.551.722.728.316.595.383 1.323.383 2.624zm-13.531 3.595h1.105V8.8h-1.105v6.925h-4.104V8.8h-1.083v15.57h1.083v-7.697h4.104zm-15.674-9.373c-.97-1.08-1.376-1.676-1.376-3.153 0-1.147.294-1.765.79-2.073.45-.265.97-.265 1.127-.265 1.376 0 1.714.838 1.804 1.367.068.309.068.485.068 1.037v1.39h1.082v-1.125c0-1.125 0-2.449-1.105-3.154-.721-.441-1.623-.441-1.871-.441-2.233 0-2.752 1.39-2.91 2.271-.09.441-.09 1.08-.09 1.17 0 1.499.519 2.38.902 2.888.339.463.902 1.08 1.827 1.963.158.132 1.218 1.125 1.804 2.007.293.463.564 1.014.564 2.227 0 1.28-.316 1.94-.88 2.272-.473.286-.97.286-1.15.286-2.052 0-2.3-1.411-2.345-2.16-.023-.332 0-.64 0-.971v-1.257h-1.105v2.205c0 .463.023.816.18 1.257.18.463.429.816.79 1.125a3.2 3.2 0 0 0 .518.375c.497.264 1.218.375 1.827.375 1.533 0 2.323-.596 2.706-1.147.316-.463.564-1.235.564-2.536 0-1.235-.226-2.095-1.015-3.066-.496-.617-1.06-1.147-1.624-1.698a25.497 25.497 0 0 1-1.082-1.169zM85.538 9.771h4.555V8.8h-5.638v15.57h5.615V23.4h-4.532v-6.683h3.743v-.948h-3.743zm-7.24 14.6l-3.428-9.374L78.253 8.8h-1.24l-3.97 7.63V8.8H71.94v15.57h1.082v-5.91l1.173-2.162 2.909 8.072zm-14.636 0h1.15V8.8h-1.15zm-7.555-.663c.699-.617.789-1.389.789-2.227v-2.668c0-.816-.023-1.698-.744-2.294-.587-.485-1.466-.573-1.692-.595.339-.067 1.399-.199 1.76-1.302.135-.397.112-.948.112-1.058v-2.316c0-.617-.09-1.279-.541-1.786-.677-.75-1.804-.662-2.052-.662h-3.022v15.57h3.18c.315 0 1.375.044 2.21-.662zm-2.12-8.336c-.316.088-.474.133-1.083.133h-1.082V9.727h1.398c.7 0 1.624.022 1.917.816.067.176.113.463.113.904v1.874c0 .375.09 1.654-1.263 2.051zm1.804 5.624c0 1.147-.09 1.676-.61 2.073-.315.22-.676.353-1.465.353h-1.871v-6.97h1.127c1.06 0 2.255.133 2.684 1.28.112.33.135.684.135 1.058zM35.56 9.77h4.556V8.8H34.48v15.57h5.615V23.4h-4.532v-6.683h3.743v-.948h-3.743zm-9.336 14.6h1.105V8.8h-1.105v6.924H22.12V8.8h-1.082v15.57h1.082v-7.697h4.105zM12.197 9.77h2.82V8.8h-6.72v.97h2.773v14.6h1.127z"/></g></g></svg>